<svg width="391" height="41" viewBox="0 0 391 41" fill="none" xmlns="http://www.w3.org/2000/svg">
<path d="M8.9801 0.000702056C4.03811 0.000702056 0 2.92739 0 6.44169V34.6142C0 38.1285 4.03811 41 8.9801 41H41.436C46.3779 41 50.416 38.1285 50.416 34.6142V27.1742H35.9979V30.7471H14.4181V10.2475H35.9979V13.8816H50.416V6.44169C50.416 2.92739 46.3779 0.000702056 41.436 0.000702056H8.9801ZM159.626 0.000702056C154.684 0.000702056 150.646 2.92739 150.646 6.44169V17.2155C150.646 20.3198 153.775 22.9577 158.058 23.4849L186.635 27.0578V30.7471H165.056V27.1742H150.646V34.6142C150.646 38.1285 154.684 41 159.626 41H192.074C197.016 41 201.054 38.1285 201.054 34.6142V23.8342C201.054 20.7299 197.925 18.0981 193.642 17.571L165.056 13.9981V10.2475H186.635V13.8816H201.054V6.44169C201.054 2.92739 197.016 0.000702056 192.074 0.000702056H159.626ZM218.704 0.000702056V10.2475H236.664V41H251.074V10.2475H269.112V0.000702056H218.704ZM286.015 0.000702056V41H329.26V30.7471H300.433V0.000702056H286.015ZM347.317 0.000702056V41H390.563V30.7471H361.735V27.2907L383.911 27.3189L383.924 16.7561L361.735 16.8653V10.2465H390.563V0L347.317 0.000702056ZM119.171 1.2938V4.33351H117.793V1.30605H111.596V4.32124H110.614V8.37828H112.579V14.9541H88.241V8.39054H90.2318V4.34576H89.2665V1.31832H83.0787V4.34576H81.6653V1.31832H75.4689V4.37029H73.8659V1.29993H67.6781V4.24159H66.394V8.317H68.1693V40.5404L87.7411 40.5094L100.41 26.7204L113.147 40.5584H132.728V8.40244H134.339V4.34542H133.193V1.3059H126.962V4.34561H125.445V1.29365L119.171 1.2938Z" fill="#A35C29"/>
</svg>
